<svg width="2728" height="522" viewBox="0 0 2728 522" fill="none" xmlns="http://www.w3.org/2000/svg">
<path d="M-145.2 262V4.39998H-37.2C1.46668 4.39998 30.5333 14.4 50 34.4C69.7333 54.1333 79.6 87.4667 79.6 134.4C79.6 178.667 69.8667 211.067 50.4 231.6C31.2 251.867 2.00001 262 -37.2 262H-145.2ZM-91.2 220.4H-44.8C-29.6 220.4 -16.8 218.133 -6.39999 213.6C4.00001 208.8 11.7333 200.267 16.8 188C22.1333 175.467 24.8 157.6 24.8 134.4C24.8 111.2 22.4 93.4667 17.6 81.2C12.8 68.9333 5.33334 60.5333 -4.79999 56C-14.9333 51.4667 -28.2667 49.2 -44.8 49.2H-91.2V220.4ZM105.3 262V4.39998H290.1V46.4H159.3V112.4H275.3V154H159.3V220.4H290.1V262H105.3ZM395.566 266C379.032 266 363.566 264.8 349.166 262.4C335.032 260 322.766 256.533 312.366 252V204.4C324.099 209.2 336.766 213.067 350.366 216C363.966 218.933 377.299 220.4 390.366 220.4C409.032 220.4 422.766 218.667 431.566 215.2C440.366 211.733 444.766 203.867 444.766 191.6C444.766 183.867 442.899 177.733 439.166 173.2C435.432 168.667 428.899 164.667 419.566 161.2C410.499 157.467 397.566 153.333 380.766 148.8C353.832 141.333 334.899 132 323.966 120.8C313.032 109.6 307.566 94.1333 307.566 74.4C307.566 50.6667 316.232 32.4 333.566 19.6C350.899 6.79999 376.099 0.399982 409.166 0.399982C424.632 0.399982 439.032 1.46665 452.366 3.59999C465.699 5.73333 476.499 8.26666 484.766 11.2V58.8C462.899 50.5333 440.099 46.4 416.366 46.4C399.566 46.4 386.366 48.2667 376.766 52C367.166 55.4667 362.366 62.9333 362.366 74.4C362.366 81.0667 364.099 86.4 367.566 90.4C371.032 94.4 376.899 98 385.166 101.2C393.699 104.4 405.566 108 420.766 112C441.832 117.6 458.099 124.267 469.566 132C481.032 139.733 488.899 148.533 493.166 158.4C497.699 168.267 499.966 179.333 499.966 191.6C499.966 214 491.432 232 474.366 245.6C457.299 259.2 431.032 266 395.566 266ZM525.441 262V4.39998H579.441V262H525.441ZM737.05 266C693.85 266 661.05 254.667 638.65 232C616.25 209.333 605.05 177.867 605.05 137.6C605.05 94.9333 616.383 61.4667 639.05 37.2C661.717 12.6667 695.45 0.399982 740.25 0.399982C755.717 0.399982 769.717 1.33332 782.25 3.19999C794.783 4.79999 806.65 7.46665 817.85 11.2V57.6C806.65 53.6 794.783 50.8 782.25 49.2C769.983 47.3333 757.317 46.4 744.25 46.4C713.583 46.4 691.85 54 679.05 69.2C666.25 84.1333 659.85 106.933 659.85 137.6C659.85 192.8 685.85 220.4 737.85 220.4C746.917 220.4 755.717 219.733 764.25 218.4C773.05 216.8 780.783 214.8 787.45 212.4V152.4H727.45V118H833.05V244C824.25 249.6 811.983 254.667 796.25 259.2C780.517 263.733 760.783 266 737.05 266ZM858.472 262V4.39998H905.272L1027.27 176V4.39998H1081.27V262H1034.47L912.472 90.4V262H858.472ZM1114.83 262V4.39998H1299.63V46.4H1168.83V112.4H1284.83V154H1168.83V220.4H1299.63V262H1114.83ZM1325.1 262V4.39998H1448.7C1478.3 4.39998 1500.03 12.2666 1513.9 28C1527.76 43.4667 1534.7 64.4 1534.7 90.8C1534.7 108.133 1530.16 123.067 1521.1 135.6C1512.3 148.133 1499.76 157.2 1483.5 162.8C1487.76 166.267 1491.1 170 1493.5 174C1496.16 178 1498.83 183.333 1501.5 190L1532.7 262H1476.7L1446.3 192.8C1443.63 186.933 1440.7 182.8 1437.5 180.4C1434.3 178 1428.96 176.8 1421.5 176.8H1379.1V262H1325.1ZM1379.1 132H1434.7C1448.83 132 1459.9 128.933 1467.9 122.8C1475.9 116.4 1479.9 105.733 1479.9 90.8C1479.9 76.4 1476.43 65.8667 1469.5 59.2C1462.56 52.5333 1452.03 49.2 1437.9 49.2H1379.1V132ZM1560.36 262V4.39998H1668.36C1707.03 4.39998 1736.1 14.4 1755.56 34.4C1775.3 54.1333 1785.16 87.4667 1785.16 134.4C1785.16 178.667 1775.43 211.067 1755.96 231.6C1736.76 251.867 1707.56 262 1668.36 262H1560.36ZM1614.36 220.4H1660.76C1675.96 220.4 1688.76 218.133 1699.16 213.6C1709.56 208.8 1717.3 200.267 1722.36 188C1727.7 175.467 1730.36 157.6 1730.36 134.4C1730.36 111.2 1727.96 93.4667 1723.16 81.2C1718.36 68.9333 1710.9 60.5333 1700.76 56C1690.63 51.4667 1677.3 49.2 1660.76 49.2H1614.36V220.4ZM1810.86 262V4.39998H1995.66V46.4H1864.86V112.4H1980.86V154H1864.86V220.4H1995.66V262H1810.86ZM2101.13 266C2084.59 266 2069.13 264.8 2054.73 262.4C2040.59 260 2028.33 256.533 2017.93 252V204.4C2029.66 209.2 2042.33 213.067 2055.93 216C2069.53 218.933 2082.86 220.4 2095.93 220.4C2114.59 220.4 2128.33 218.667 2137.13 215.2C2145.93 211.733 2150.33 203.867 2150.33 191.6C2150.33 183.867 2148.46 177.733 2144.73 173.2C2140.99 168.667 2134.46 164.667 2125.13 161.2C2116.06 157.467 2103.13 153.333 2086.33 148.8C2059.39 141.333 2040.46 132 2029.53 120.8C2018.59 109.6 2013.13 94.1333 2013.13 74.4C2013.13 50.6667 2021.79 32.4 2039.13 19.6C2056.46 6.79999 2081.66 0.399982 2114.73 0.399982C2130.19 0.399982 2144.59 1.46665 2157.93 3.59999C2171.26 5.73333 2182.06 8.26666 2190.33 11.2V58.8C2168.46 50.5333 2145.66 46.4 2121.93 46.4C2105.13 46.4 2091.93 48.2667 2082.33 52C2072.73 55.4667 2067.93 62.9333 2067.93 74.4C2067.93 81.0667 2069.66 86.4 2073.13 90.4C2076.59 94.4 2082.46 98 2090.73 101.2C2099.26 104.4 2111.13 108 2126.33 112C2147.39 117.6 2163.66 124.267 2175.13 132C2186.59 139.733 2194.46 148.533 2198.73 158.4C2203.26 168.267 2205.53 179.333 2205.53 191.6C2205.53 214 2196.99 232 2179.93 245.6C2162.86 259.2 2136.59 266 2101.13 266ZM2231 262V4.39998H2285V262H2231ZM2442.61 266C2399.41 266 2366.61 254.667 2344.21 232C2321.81 209.333 2310.61 177.867 2310.61 137.6C2310.61 94.9333 2321.95 61.4667 2344.61 37.2C2367.28 12.6667 2401.01 0.399982 2445.81 0.399982C2461.28 0.399982 2475.28 1.33332 2487.81 3.19999C2500.35 4.79999 2512.21 7.46665 2523.41 11.2V57.6C2512.21 53.6 2500.35 50.8 2487.81 49.2C2475.55 47.3333 2462.88 46.4 2449.81 46.4C2419.15 46.4 2397.41 54 2384.61 69.2C2371.81 84.1333 2365.41 106.933 2365.41 137.6C2365.41 192.8 2391.41 220.4 2443.41 220.4C2452.48 220.4 2461.28 219.733 2469.81 218.4C2478.61 216.8 2486.35 214.8 2493.01 212.4V152.4H2433.01V118H2538.61V244C2529.81 249.6 2517.55 254.667 2501.81 259.2C2486.08 263.733 2466.35 266 2442.61 266ZM2564.03 262V4.39998H2610.83L2732.83 176V4.39998H2786.83V262H2740.03L2618.03 90.4V262H2564.03ZM2820.39 262V4.39998H3005.19V46.4H2874.39V112.4H2990.39V154H2874.39V220.4H3005.19V262H2820.39ZM3030.66 262V4.39998H3154.26C3183.86 4.39998 3205.59 12.2666 3219.46 28C3233.33 43.4667 3240.26 64.4 3240.26 90.8C3240.26 108.133 3235.73 123.067 3226.66 135.6C3217.86 148.133 3205.33 157.2 3189.06 162.8C3193.33 166.267 3196.66 170 3199.06 174C3201.73 178 3204.39 183.333 3207.06 190L3238.26 262H3182.26L3151.86 192.8C3149.19 186.933 3146.26 182.8 3143.06 180.4C3139.86 178 3134.53 176.8 3127.06 176.8H3084.66V262H3030.66ZM3084.66 132H3140.26C3154.39 132 3165.46 128.933 3173.46 122.8C3181.46 116.4 3185.46 105.733 3185.46 90.8C3185.46 76.4 3181.99 65.8667 3175.06 59.2C3168.13 52.5333 3157.59 49.2 3143.46 49.2H3084.66V132Z" fill="black" fill-opacity="0.02"/>
<path d="M-147 519V325.8H-71.4C-43.4 325.8 -22.9 333.4 -9.9 348.6C3.1 363.8 9.6 388.8 9.6 423.6C9.6 456.6 3.2 480.8 -9.6 496.2C-22.2 511.4 -42.8 519 -71.4 519H-147ZM-122.4 499.8H-75.9C-62.3 499.8 -51 497.8 -42 493.8C-33 489.6 -26.3 482 -21.9 471C-17.3 460 -15 444.2 -15 423.6C-15 403.2 -17.1 387.3 -21.3 375.9C-25.3 364.5 -31.8 356.6 -40.8 352.2C-49.6 347.6 -61.3 345.3 -75.9 345.3H-122.4V499.8ZM36.4805 519V325.8H166.98V345.3H61.0805V412.8H156.18V432H61.0805V499.8H166.98V519H36.4805ZM256.992 519L183.492 325.8H208.992L271.092 494.1L333.492 325.8H358.992L285.792 519H256.992ZM381.469 519V325.8H511.969V345.3H406.069V412.8H501.169V432H406.069V499.8H511.969V519H381.469ZM538.875 519V325.8H563.475V499.8H666.375V519H538.875ZM755.651 522C725.451 522 703.051 514.1 688.451 498.3C673.851 482.3 666.551 457 666.551 422.4C666.551 387.8 673.851 362.6 688.451 346.8C703.051 330.8 725.451 322.8 755.651 322.8C786.051 322.8 808.451 330.8 822.851 346.8C837.451 362.6 844.751 387.8 844.751 422.4C844.751 457 837.451 482.3 822.851 498.3C808.451 514.1 786.051 522 755.651 522ZM755.651 501C770.251 501 782.251 498.5 791.651 493.5C801.251 488.5 808.351 480.3 812.951 468.9C817.751 457.3 820.151 441.8 820.151 422.4C820.151 403 817.751 387.6 812.951 376.2C808.351 364.6 801.251 356.3 791.651 351.3C782.251 346.3 770.251 343.8 755.651 343.8C741.051 343.8 728.951 346.3 719.351 351.3C709.951 356.3 702.851 364.6 698.051 376.2C693.451 387.6 691.151 403 691.151 422.4C691.151 441.8 693.451 457.3 698.051 468.9C702.851 480.3 709.951 488.5 719.351 493.5C728.951 498.5 741.051 501 755.651 501ZM871.852 519V325.8H953.452C975.052 325.8 990.952 331.6 1001.15 343.2C1011.35 354.8 1016.45 369.8 1016.45 388.2C1016.45 407 1010.65 421.9 999.052 432.9C987.652 443.7 972.052 449.1 952.252 449.1H896.452V519H871.852ZM896.452 429.9H948.352C962.752 429.9 973.552 426.2 980.752 418.8C988.152 411.2 991.852 401 991.852 388.2C991.852 374.6 988.352 364.1 981.352 356.7C974.552 349.1 964.052 345.3 949.852 345.3H896.452V429.9ZM1037.46 519V325.8H1167.96V345.3H1062.06V412.8H1157.16V432H1062.06V499.8H1167.96V519H1037.46ZM1194.87 519V325.8H1279.77C1300.57 325.8 1315.67 331.2 1325.07 342C1334.67 352.8 1339.47 367.4 1339.47 385.8C1339.47 400 1335.97 411.8 1328.97 421.2C1322.17 430.6 1311.97 436.9 1298.37 440.1C1302.37 442.5 1305.37 445.3 1307.37 448.5C1309.57 451.5 1311.77 455.6 1313.97 460.8L1339.17 519H1313.97L1289.37 462.9C1286.77 456.9 1283.57 452.6 1279.77 450C1276.17 447.4 1269.67 446.1 1260.27 446.1H1219.47V519H1194.87ZM1219.47 426.9H1272.87C1285.87 426.9 1296.07 423.7 1303.47 417.3C1311.07 410.7 1314.87 400.2 1314.87 385.8C1314.87 358.8 1301.97 345.3 1276.17 345.3H1219.47V426.9ZM1366.34 519V325.8H1441.94C1469.94 325.8 1490.44 333.4 1503.44 348.6C1516.44 363.8 1522.94 388.8 1522.94 423.6C1522.94 456.6 1516.54 480.8 1503.74 496.2C1491.14 511.4 1470.54 519 1441.94 519H1366.34ZM1390.94 499.8H1437.44C1451.04 499.8 1462.34 497.8 1471.34 493.8C1480.34 489.6 1487.04 482 1491.44 471C1496.04 460 1498.34 444.2 1498.34 423.6C1498.34 403.2 1496.24 387.3 1492.04 375.9C1488.04 364.5 1481.54 356.6 1472.54 352.2C1463.74 347.6 1452.04 345.3 1437.44 345.3H1390.94V499.8ZM1549.82 519V325.8H1680.32V345.3H1574.42V412.8H1669.52V432H1574.42V499.8H1680.32V519H1549.82ZM1770.33 519L1696.83 325.8H1722.33L1784.43 494.1L1846.83 325.8H1872.33L1799.13 519H1770.33ZM1894.8 519V325.8H2025.3V345.3H1919.4V412.8H2014.5V432H1919.4V499.8H2025.3V519H1894.8ZM2052.21 519V325.8H2076.81V499.8H2179.71V519H2052.21ZM2268.99 522C2238.79 522 2216.39 514.1 2201.79 498.3C2187.19 482.3 2179.89 457 2179.89 422.4C2179.89 387.8 2187.19 362.6 2201.79 346.8C2216.39 330.8 2238.79 322.8 2268.99 322.8C2299.39 322.8 2321.79 330.8 2336.19 346.8C2350.79 362.6 2358.09 387.8 2358.09 422.4C2358.09 457 2350.79 482.3 2336.19 498.3C2321.79 514.1 2299.39 522 2268.99 522ZM2268.99 501C2283.59 501 2295.59 498.5 2304.99 493.5C2314.59 488.5 2321.69 480.3 2326.29 468.9C2331.09 457.3 2333.49 441.8 2333.49 422.4C2333.49 403 2331.09 387.6 2326.29 376.2C2321.69 364.6 2314.59 356.3 2304.99 351.3C2295.59 346.3 2283.59 343.8 2268.99 343.8C2254.39 343.8 2242.29 346.3 2232.69 351.3C2223.29 356.3 2216.19 364.6 2211.39 376.2C2206.79 387.6 2204.49 403 2204.49 422.4C2204.49 441.8 2206.79 457.3 2211.39 468.9C2216.19 480.3 2223.29 488.5 2232.69 493.5C2242.29 498.5 2254.39 501 2268.99 501ZM2385.19 519V325.8H2466.79C2488.39 325.8 2504.29 331.6 2514.49 343.2C2524.69 354.8 2529.79 369.8 2529.79 388.2C2529.79 407 2523.99 421.9 2512.39 432.9C2500.99 443.7 2485.39 449.1 2465.59 449.1H2409.79V519H2385.19ZM2409.79 429.9H2461.69C2476.09 429.9 2486.89 426.2 2494.09 418.8C2501.49 411.2 2505.19 401 2505.19 388.2C2505.19 374.6 2501.69 364.1 2494.69 356.7C2487.89 349.1 2477.39 345.3 2463.19 345.3H2409.79V429.9ZM2550.8 519V325.8H2681.3V345.3H2575.4V412.8H2670.5V432H2575.4V499.8H2681.3V519H2550.8ZM2708.2 519V325.8H2793.1C2813.9 325.8 2829 331.2 2838.4 342C2848 352.8 2852.8 367.4 2852.8 385.8C2852.8 400 2849.3 411.8 2842.3 421.2C2835.5 430.6 2825.3 436.9 2811.7 440.1C2815.7 442.5 2818.7 445.3 2820.7 448.5C2822.9 451.5 2825.1 455.6 2827.3 460.8L2852.5 519H2827.3L2802.7 462.9C2800.1 456.9 2796.9 452.6 2793.1 450C2789.5 447.4 2783 446.1 2773.6 446.1H2732.8V519H2708.2ZM2732.8 426.9H2786.2C2799.2 426.9 2809.4 423.7 2816.8 417.3C2824.4 410.7 2828.2 400.2 2828.2 385.8C2828.2 358.8 2815.3 345.3 2789.5 345.3H2732.8V426.9Z" fill="black" fill-opacity="0.02"/>
</svg>
